<svg xmlns="http://www.w3.org/2000/svg" version="1.1" xmlns:xlink="http://www.w3.org/1999/xlink" xmlns:svgjs="http://svgjs.com/svgjs" width="1440" height="680" preserveAspectRatio="none" viewBox="0 0 1440 560"><g mask="url(&quot;#SvgjsMask1019&quot;)" fill="none"><rect width="1440" height="560" x="0" y="0" fill="rgba(23, 68, 78, 1)"></rect><path d="M0,433.883C85.414,443.253,188.221,447.581,247.936,385.796C308.597,323.031,270.442,217.713,290.931,132.864C306.423,68.708,358.833,14.967,353.364,-50.806C347.776,-118.011,304.221,-174.395,261.075,-226.223C217.219,-278.903,163.79,-319.361,103.165,-351.348C30.059,-389.919,-49.93,-461.917,-126.463,-430.693C-204.959,-398.668,-193.363,-279.236,-242.653,-210.26C-285.283,-150.604,-374.674,-127.407,-393.778,-56.617C-413.183,15.288,-372.37,88.18,-341.48,155.949C-310.571,223.76,-273.078,287.939,-215.28,334.982C-152.766,385.863,-80.122,425.094,0,433.883" fill="#12363e"></path><path d="M1440 1095.2820000000002C1570.091 1114.3229999999999 1705.327 1215.046 1821.914 1154.27 1937.156 1094.194 1968.058 938.482 1987.333 809.958 2003.779 700.3009999999999 1953.463 596.934 1921.4189999999999 490.782 1894.225 400.696 1865.7440000000001 314.517 1814.04 235.89299999999997 1755.665 147.12599999999998 1701.646 44.62199999999996 1602.653 6.053999999999974 1501.434-33.38099999999997 1389.625 3.183999999999969 1284.224 29.474000000000046 1174.752 56.77999999999997 1067.853 90.63 979.96 161.373 879.713 242.06 764.663 332.914 748.592 460.591 732.542 588.095 829.832 698.698 898.664 807.22 959.274 902.779 1023.861 998.925 1123.758 1052.083 1219.622 1103.095 1332.5529999999999 1079.5549999999998 1440 1095.2820000000002" fill="#1c525e"></path></g><defs><mask id="SvgjsMask1019"><rect width="1440" height="560" fill="#ffffff"></rect></mask></defs></svg>